M48
;Layer_Color=9474304
;FILE_FORMAT=2:5
INCH,LZ
;TYPE=PLATED
T1F00S00C0.01000
T2F00S00C0.03000
T3F00S00C0.04016
T4F00S00C0.12598
%
T01
X020495Y00875
X02Y01075
X02125Y011
X0213209Y0119792
X0195Y0119803
X02125Y01425
X0201791Y0163958
X02025Y0175
X023Y0109291
Y00925
X01775
Y00975
X01875Y0105
X01775Y0115
Y012
X0185Y0125
Y0135
X01675
X0157854Y0117146
X01325Y01225
X011Y012
X01025Y01175
Y011
Y01
X011
Y0095
Y009
X00975Y00875
X00925
X00825Y009
Y00975
Y01175
X00625
X00575Y0131328
X00425Y01425
Y01475
Y01525
X0055Y0165
X008Y01375
X01025Y01425
Y01475
Y01525
X01225Y018
X01325
X0155Y01775
X018Y0185
X01875Y018
X01025Y007
Y0065
Y006
X0055Y00575
Y00625
Y00675
X00425Y0065
Y006
Y007
X00375Y0085
X00325
X00275
X0015Y009
Y0095
Y01
X0035
Y0095354
Y01325
X0015Y01225
X00075Y01375
X002126Y0177402
X00325Y01775
T02
X011Y001
X012
X013
X014
X015
X016
X017
X018
X02
X021
X022
X023
X024
X025
X019Y02
X018
X0164
X0154
X0144
X0134
X0124
X0114
X0104
X0094
X0084
X0074
X02
X021
X022
X023
X024
X025
T03
X024Y0045
Y0055
Y00825
Y00925
X002Y02025
X001
T04
X0055Y001
X026Y003
Y014
X006Y02
M30
