%TF.GenerationSoftware,Altium Limited,Altium Designer,19.1.8 (144)*%
G04 Layer_Physical_Order=1*
G04 Layer_Color=255*
%FSLAX26Y26*%
%MOIN*%
%TF.FileFunction,Copper,L1,Top,Signal*%
%TF.Part,Single*%
G01*
G75*
%TA.AperFunction,SMDPad,CuDef*%
%ADD10R,0.066929X0.037402*%
%ADD11R,0.040000X0.137953*%
%ADD12R,0.412992X0.329921*%
%TA.AperFunction,Conductor*%
%ADD13C,0.020000*%
%ADD14C,0.030000*%
%ADD15C,0.010000*%
%ADD16C,0.050000*%
%TA.AperFunction,ComponentPad*%
%ADD17C,0.061024*%
%ADD18R,0.061024X0.061024*%
%ADD19R,0.061024X0.061024*%
%ADD20C,0.060000*%
%ADD21R,0.060000X0.060000*%
%TA.AperFunction,ViaPad*%
%ADD22C,0.125984*%
%ADD23C,0.020000*%
D10*
X450000Y2035236D02*
D03*
Y1925000D02*
D03*
X350000Y2035236D02*
D03*
Y1925000D02*
D03*
D11*
X1775000Y953543D02*
D03*
X1575000D02*
D03*
Y1171457D02*
D03*
X1775000D02*
D03*
X1300000Y953543D02*
D03*
X1100000D02*
D03*
Y1171457D02*
D03*
X1300000D02*
D03*
X825000Y953543D02*
D03*
X625000D02*
D03*
Y1175000D02*
D03*
X825000D02*
D03*
X350000Y953543D02*
D03*
X150000D02*
D03*
Y1171457D02*
D03*
X350000D02*
D03*
D12*
X1675000Y550000D02*
D03*
Y1575000D02*
D03*
X1200000Y550000D02*
D03*
Y1575000D02*
D03*
X725000Y550000D02*
D03*
Y1578543D02*
D03*
X250000Y550000D02*
D03*
Y1575000D02*
D03*
D13*
X1100000Y953543D02*
X1153543D01*
X618570Y850000D02*
X900000D01*
X925000Y875000D01*
X618570Y850000D02*
Y947114D01*
X375000Y850000D02*
X618570D01*
X925000Y875000D02*
X975000D01*
X325000Y850000D02*
X375000D01*
X275000D02*
X325000D01*
X618570Y947114D02*
X625000Y953543D01*
X150000Y1000000D02*
Y1054196D01*
X1475000Y1050000D02*
X1536716Y988284D01*
X1250000Y1050000D02*
X1475000D01*
X1153543Y953543D02*
X1250000Y1050000D01*
X1536716Y988284D02*
X1565000D01*
X1575000Y978284D01*
Y953543D02*
Y978284D01*
X2025000Y1000000D02*
X2125000Y1100000D01*
X1850000Y1000000D02*
X2025000D01*
X1775000Y1075000D02*
X1850000Y1000000D01*
X1775000Y1075000D02*
Y1150000D01*
X2200000Y1075000D02*
Y1350000D01*
X2055000Y930000D02*
X2200000Y1075000D01*
X2125000Y1425000D02*
X2200000Y1350000D01*
X1260000Y1135000D02*
Y1248717D01*
X1175000Y1050000D02*
X1260000Y1135000D01*
X811716Y1050000D02*
X1175000D01*
X775000Y1086716D02*
X811716Y1050000D01*
X563284Y1325000D02*
X575000Y1313284D01*
X450000Y1325000D02*
X563284D01*
X400000Y1375000D02*
X450000Y1325000D01*
X75000Y1375000D02*
X400000D01*
X23504Y1948504D02*
X100000Y2025000D01*
X23504Y951496D02*
Y1948504D01*
X338284Y1042520D02*
X350000Y1054236D01*
X321716Y1042520D02*
X338284D01*
X350000Y1054236D02*
Y1171457D01*
X242717Y963520D02*
X321716Y1042520D01*
X242717Y928999D02*
Y963520D01*
X163717Y850000D02*
X242717Y928999D01*
X125000Y850000D02*
X163717D01*
X23504Y951496D02*
X125000Y850000D01*
X1815000Y1150000D02*
Y1260000D01*
X1725000Y1350000D02*
X1815000Y1260000D01*
X1675000Y1350000D02*
X1725000D01*
X1875000Y1050000D02*
Y1090000D01*
X1815000Y1150000D02*
X1875000Y1090000D01*
X725000Y1300000D02*
X800000Y1375000D01*
X725000Y1225000D02*
Y1300000D01*
Y1225000D02*
X775000Y1175000D01*
Y1086716D02*
Y1175000D01*
X1260000Y1248717D02*
X1271716Y1260433D01*
X1285433D01*
X1426496Y1401496D01*
Y1748245D01*
X1404741Y1770000D02*
X1426496Y1748245D01*
X1255000Y1770000D02*
X1404741D01*
X1225000Y1800000D02*
X1255000Y1770000D01*
X1420276Y1950000D02*
X1460711D01*
X1332087Y1861811D02*
X1420276Y1950000D01*
X1490000Y2022145D02*
X1517855Y2050000D01*
X2050000D01*
X2100000Y2000000D01*
X1490000Y1979289D02*
Y2022145D01*
X1460711Y1950000D02*
X1490000Y1979289D01*
X1332087Y1800000D02*
Y1861811D01*
X1995000Y870000D02*
Y912426D01*
X1989567Y864567D02*
X1995000Y870000D01*
X2012574Y930000D02*
X2055000D01*
X1995000Y912426D02*
X2012574Y930000D01*
X1546716Y864567D02*
X1989567D01*
X1457739Y953543D02*
X1546716Y864567D01*
X1300000Y953543D02*
X1457739D01*
X1578543Y1171457D02*
X1581457D01*
X1575000D02*
X1578543D01*
X350000Y1300000D02*
Y1325000D01*
X190000Y1140000D02*
X350000Y1300000D01*
X190000Y1094196D02*
Y1140000D01*
X150000Y1054196D02*
X190000Y1094196D01*
X1550000Y1775000D02*
Y1968284D01*
X1547654Y1970631D02*
X1550000Y1968284D01*
X1547654Y1970631D02*
Y1992346D01*
X1540000Y2000000D02*
X1547654Y1992346D01*
X1850000Y1250000D02*
Y1350000D01*
X1925000Y1850000D02*
X2025000Y1750000D01*
X1800000Y1850000D02*
X1925000D01*
X1581457Y1171457D02*
X1585000Y1175000D01*
X324016Y1774016D02*
X325000Y1775000D01*
X212599Y1774016D02*
X324016D01*
D14*
X2300000Y925000D02*
Y1092913D01*
X1899961Y1425039D02*
X1900000Y1425000D01*
X1824961Y1425039D02*
X1899961D01*
X1675000Y1575000D02*
X1824961Y1425039D01*
X1900000Y1175000D02*
Y1425000D01*
Y1175000D02*
X2000000Y1075000D01*
X2004064Y829567D02*
X2049497Y875000D01*
X1954567Y829567D02*
X2004064D01*
X1862548Y737548D02*
X1954567Y829567D01*
X1862548Y699961D02*
Y737548D01*
X1712588Y550000D02*
X1862548Y699961D01*
X1675000Y550000D02*
X1712588D01*
X1025000Y1100000D02*
Y1175000D01*
X102109Y2022891D02*
X144488Y2065270D01*
X1025000Y1475000D02*
Y1525000D01*
Y1425000D02*
Y1475000D01*
Y1175000D02*
Y1425000D01*
Y700000D02*
Y1000000D01*
Y650000D02*
Y700000D01*
Y600000D02*
Y650000D01*
X2325000Y806568D02*
Y850000D01*
X2400000Y925000D01*
X2245000Y726568D02*
X2325000Y806568D01*
X2245000Y350000D02*
Y726568D01*
X2215000Y320000D02*
X2245000Y350000D01*
X1700000Y320000D02*
X2215000D01*
X1675000Y345000D02*
X1700000Y320000D01*
X1675000Y345000D02*
Y550000D01*
X2285000Y323137D02*
Y710000D01*
X2400000Y825000D01*
X2241863Y280000D02*
X2285000Y323137D01*
X1250000Y280000D02*
X2241863D01*
X1200000Y330000D02*
X1250000Y280000D01*
X1200000Y330000D02*
Y550000D01*
X2325000Y306568D02*
Y475000D01*
X2400000Y550000D01*
X2258432Y240000D02*
X2325000Y306568D01*
X750000Y240000D02*
X2258432D01*
X725000Y265000D02*
X750000Y240000D01*
X725000Y265000D02*
Y550000D01*
X2275000Y200000D02*
X2400000Y325000D01*
X600000Y200000D02*
X2275000D01*
X437548Y362452D02*
X600000Y200000D01*
X2400000Y325000D02*
Y450000D01*
X437548Y362452D02*
Y400039D01*
X287587Y550000D02*
X437548Y400039D01*
X250000Y550000D02*
X287587D01*
X159133Y2080512D02*
X240867D01*
X144488Y2065867D02*
X159133Y2080512D01*
X144488Y2065270D02*
Y2065867D01*
X240867Y2080512D02*
X286143Y2035236D01*
X350000D01*
X450000D01*
X297098Y1927902D02*
X347098D01*
X350000Y1925000D01*
X200000Y2025000D02*
X297098Y1927902D01*
X350000Y1925000D02*
X450000D01*
D15*
X2131971Y1198032D02*
X2132087Y1197916D01*
X1950000Y1198032D02*
X2131971D01*
X2017913Y1639583D02*
Y1682087D01*
X1875000Y1800000D02*
X1900000D01*
X2017913Y1682087D01*
D16*
X100000Y2025000D02*
X102109Y2022891D01*
D17*
X100000Y2025000D02*
D03*
X2400000Y825000D02*
D03*
Y450000D02*
D03*
D18*
X200000Y2025000D02*
D03*
D19*
X2400000Y925000D02*
D03*
Y550000D02*
D03*
D20*
X1600000Y100000D02*
D03*
X1700000D02*
D03*
X1100000D02*
D03*
X1200000D02*
D03*
X1300000D02*
D03*
X1400000D02*
D03*
X1500000D02*
D03*
X2300000Y2000000D02*
D03*
X2400000D02*
D03*
X1800000D02*
D03*
X1900000D02*
D03*
X2000000D02*
D03*
X2100000D02*
D03*
X2200000D02*
D03*
X740000D02*
D03*
X840000D02*
D03*
X940000D02*
D03*
X1040000D02*
D03*
X1140000D02*
D03*
X1240000D02*
D03*
X1340000D02*
D03*
X1440000D02*
D03*
X1540000D02*
D03*
X2500000Y100000D02*
D03*
X2400000D02*
D03*
X2300000D02*
D03*
X2200000D02*
D03*
X2100000D02*
D03*
D21*
X1800000D02*
D03*
X2500000Y2000000D02*
D03*
X1640000D02*
D03*
X2000000Y100000D02*
D03*
D22*
X600000Y2000000D02*
D03*
X550000Y100000D02*
D03*
X2600000Y1400000D02*
D03*
Y300000D02*
D03*
D23*
X975000Y875000D02*
D03*
X1100000Y900000D02*
D03*
Y950000D02*
D03*
Y1000000D02*
D03*
X925000Y875000D02*
D03*
X375000Y850000D02*
D03*
X325000D02*
D03*
X275000D02*
D03*
X150000Y1000000D02*
D03*
Y900000D02*
D03*
Y950000D02*
D03*
X2125000Y1100000D02*
D03*
X2300000Y1092913D02*
D03*
Y925000D02*
D03*
X2000000Y1075000D02*
D03*
X2049497Y875000D02*
D03*
X1025000Y1100000D02*
D03*
Y1175000D02*
D03*
Y1000000D02*
D03*
Y1525000D02*
D03*
Y1475000D02*
D03*
Y1425000D02*
D03*
Y600000D02*
D03*
Y650000D02*
D03*
Y700000D02*
D03*
X550000Y575000D02*
D03*
Y625000D02*
D03*
Y675000D02*
D03*
Y1650000D02*
D03*
X425000Y600000D02*
D03*
Y650000D02*
D03*
Y700000D02*
D03*
Y1425000D02*
D03*
Y1475000D02*
D03*
Y1525000D02*
D03*
X1325000Y1225000D02*
D03*
X575000Y1313284D02*
D03*
X75000Y1375000D02*
D03*
X1675000Y1350000D02*
D03*
X1875000Y1050000D02*
D03*
X1775000Y1150000D02*
D03*
Y1200000D02*
D03*
X800000Y1375000D02*
D03*
X1225000Y1800000D02*
D03*
X1325000D02*
D03*
X2125000Y1425000D02*
D03*
X350000Y1325000D02*
D03*
X1550000Y1775000D02*
D03*
X1850000Y1350000D02*
D03*
Y1250000D02*
D03*
X1775000Y925000D02*
D03*
Y975000D02*
D03*
X825000Y900000D02*
D03*
Y975000D02*
D03*
X2025000Y1750000D02*
D03*
X1800000Y1850000D02*
D03*
X350000Y953543D02*
D03*
Y1000000D02*
D03*
X825000Y1175000D02*
D03*
X625000D02*
D03*
X2132087Y1197916D02*
D03*
X1950000Y1198032D02*
D03*
X1578543Y1171457D02*
D03*
X1100000Y1200000D02*
D03*
X212599Y1774016D02*
D03*
X325000Y1775000D02*
D03*
X1875000Y1800000D02*
D03*
X2017913Y1639583D02*
D03*
X150000Y1225000D02*
D03*
%TF.MD5,a1a385ae7a3aa09778d70120c265d09f*%
M02*
