%TF.GenerationSoftware,Altium Limited,Altium Designer,19.1.8 (144)*%
G04 Layer_Color=255*
%FSLAX26Y26*%
%MOIN*%
%TF.FileFunction,Pads,Bot*%
%TF.Part,Single*%
G01*
G75*
%TA.AperFunction,ComponentPad*%
%ADD17C,0.061024*%
%ADD18R,0.061024X0.061024*%
%ADD19R,0.061024X0.061024*%
%ADD20C,0.060000*%
%ADD21R,0.060000X0.060000*%
%TA.AperFunction,ViaPad*%
%ADD22C,0.125984*%
%TA.AperFunction,SMDPad,CuDef*%
%ADD24R,0.066929X0.043307*%
%ADD25R,0.043307X0.066929*%
%ADD26R,0.031496X0.035433*%
D17*
X100000Y2025000D02*
D03*
X2400000Y825000D02*
D03*
Y450000D02*
D03*
D18*
X200000Y2025000D02*
D03*
D19*
X2400000Y925000D02*
D03*
Y550000D02*
D03*
D20*
X1600000Y100000D02*
D03*
X1700000D02*
D03*
X1100000D02*
D03*
X1200000D02*
D03*
X1300000D02*
D03*
X1400000D02*
D03*
X1500000D02*
D03*
X2300000Y2000000D02*
D03*
X2400000D02*
D03*
X1800000D02*
D03*
X1900000D02*
D03*
X2000000D02*
D03*
X2100000D02*
D03*
X2200000D02*
D03*
X740000D02*
D03*
X840000D02*
D03*
X940000D02*
D03*
X1040000D02*
D03*
X1140000D02*
D03*
X1240000D02*
D03*
X1340000D02*
D03*
X1440000D02*
D03*
X1540000D02*
D03*
X2500000Y100000D02*
D03*
X2400000D02*
D03*
X2300000D02*
D03*
X2200000D02*
D03*
X2100000D02*
D03*
D21*
X1800000D02*
D03*
X2500000Y2000000D02*
D03*
X1640000D02*
D03*
X2000000Y100000D02*
D03*
D22*
X600000Y2000000D02*
D03*
X550000Y100000D02*
D03*
X2600000Y1400000D02*
D03*
Y300000D02*
D03*
D24*
X2300000Y1207087D02*
D03*
Y1092913D02*
D03*
X1850000Y1567913D02*
D03*
Y1682087D02*
D03*
X725000Y1317913D02*
D03*
Y1432087D02*
D03*
X1700000Y1167913D02*
D03*
Y1282087D02*
D03*
X575000Y1317913D02*
D03*
Y1432087D02*
D03*
X75000Y1317913D02*
D03*
Y1432087D02*
D03*
X250000Y1457087D02*
D03*
Y1342913D02*
D03*
X1475000Y1282087D02*
D03*
Y1167913D02*
D03*
X1325000Y1332087D02*
D03*
Y1217913D02*
D03*
X1200000Y1332087D02*
D03*
Y1217913D02*
D03*
D25*
X1217913Y1800000D02*
D03*
X1332086D02*
D03*
X2132087Y1749999D02*
D03*
X2017913D02*
D03*
Y1418749D02*
D03*
X2132087D02*
D03*
Y1529166D02*
D03*
X2017913D02*
D03*
X2132087Y1197916D02*
D03*
X2017913D02*
D03*
X2132087Y1639583D02*
D03*
X2017913D02*
D03*
Y1300000D02*
D03*
X2132087D02*
D03*
D26*
X1237402Y1410630D02*
D03*
X1162599D02*
D03*
X1200000Y1489370D02*
D03*
X1737402Y1410630D02*
D03*
X1662599D02*
D03*
X1700000Y1489370D02*
D03*
X762402Y1535630D02*
D03*
X687598D02*
D03*
X725000Y1614370D02*
D03*
X287402Y1535630D02*
D03*
X212599D02*
D03*
X250000Y1614370D02*
D03*
%TF.MD5,baa6e35ff63f294b2e6865a5f5bee1af*%
M02*
