%TF.GenerationSoftware,Altium Limited,Altium Designer,19.1.8 (144)*%
G04 Layer_Physical_Order=2*
G04 Layer_Color=16711680*
%FSLAX26Y26*%
%MOIN*%
%TF.FileFunction,Copper,L2,Bot,Signal*%
%TF.Part,Single*%
G01*
G75*
%TA.AperFunction,Conductor*%
%ADD13C,0.020000*%
%ADD14C,0.030000*%
%ADD15C,0.010000*%
%TA.AperFunction,ComponentPad*%
%ADD17C,0.061024*%
%ADD18R,0.061024X0.061024*%
%ADD19R,0.061024X0.061024*%
%ADD20C,0.060000*%
%ADD21R,0.060000X0.060000*%
%TA.AperFunction,ViaPad*%
%ADD22C,0.125984*%
%ADD23C,0.020000*%
%TA.AperFunction,SMDPad,CuDef*%
%ADD24R,0.066929X0.043307*%
%ADD25R,0.043307X0.066929*%
%ADD26R,0.031496X0.035433*%
D13*
X975000Y875000D02*
X1075000D01*
X925000D02*
X975000D01*
X1100000Y950000D02*
Y1000000D01*
Y900000D02*
Y950000D01*
X1075000Y875000D02*
X1100000Y900000D01*
X2132087Y1517355D02*
X2139732Y1525000D01*
X2120000Y820000D02*
X2375000Y1075000D01*
X825000Y900000D02*
X905000Y820000D01*
X2120000D01*
X250000Y850000D02*
X275000D01*
X150000Y950000D02*
Y1000000D01*
Y900000D02*
Y950000D01*
Y886716D02*
Y900000D01*
X225000Y875000D02*
X250000Y850000D01*
X161716Y875000D02*
X225000D01*
X150000Y886716D02*
X161716Y875000D01*
X2175000Y1100000D02*
X2270433Y1195433D01*
X2288346D01*
X2300000Y1207087D01*
X2125000Y1100000D02*
X2175000D01*
X1658251Y1126260D02*
X1751260D01*
X1775000Y1150000D01*
X855000Y1145000D02*
X1220969D01*
X1225969Y1150000D02*
X1409511D01*
X1220969Y1145000D02*
X1225969Y1150000D01*
X2375000Y1075000D02*
Y1325000D01*
X2175000Y1525000D02*
X2375000Y1325000D01*
X475000Y1775000D02*
X750000D01*
X325000D02*
X475000D01*
Y725000D02*
Y1775000D01*
Y725000D02*
X515000Y685000D01*
Y560503D02*
Y685000D01*
Y560503D02*
X535503Y540000D01*
X1160000D01*
X1600000Y100000D01*
X1325000Y1217913D02*
X1336811D01*
X825000Y1175000D02*
X855000Y1145000D01*
X1409511Y1150000D02*
X1433251Y1126260D01*
X1528402Y1137913D02*
X1646598D01*
X1658251Y1126260D01*
X1516749D02*
X1528402Y1137913D01*
X1433251Y1126260D02*
X1516749D01*
X75000Y1375000D02*
Y1432087D01*
X100000Y2017772D02*
Y2025000D01*
X75000Y1992772D02*
X100000Y2017772D01*
X75000Y1432087D02*
Y1992772D01*
X1705000Y1287087D02*
Y1375000D01*
X1700000Y1380000D02*
X1705000Y1375000D01*
X1700000Y1380000D02*
Y1489370D01*
Y1282087D02*
X1705000Y1287087D01*
X1550000Y1350000D02*
X1675000D01*
X1489370Y1410630D02*
X1550000Y1350000D01*
X1237402Y1410630D02*
X1489370D01*
X1875000Y1050000D02*
X1969452Y1144452D01*
X2047851D01*
X2059567Y1156167D01*
Y1227480D01*
X2132087Y1300000D01*
X125229Y1325229D02*
X142913Y1342913D01*
X250000D01*
X82316Y1325229D02*
X125229D01*
X75000Y1317913D02*
X82316Y1325229D01*
X83162Y1317913D02*
X94816Y1306260D01*
X75000Y1317913D02*
X83162D01*
X1765433Y1209567D02*
X1775000Y1200000D01*
X1547520Y1209567D02*
X1765433D01*
X1498465Y1258622D02*
X1547520Y1209567D01*
X1498465Y1258622D02*
Y1270433D01*
X1486811Y1282087D02*
X1498465Y1270433D01*
X1475000Y1282087D02*
X1486811D01*
X1775000Y1150000D02*
Y1200000D01*
X798032Y1376968D02*
Y1500000D01*
Y1376968D02*
X800000Y1375000D01*
X770118Y1527913D02*
X798032Y1500000D01*
X768150Y1527913D02*
X770118D01*
X762402Y1533661D02*
X768150Y1527913D01*
X762402Y1533661D02*
Y1535630D01*
X642369Y1925000D02*
X1725000D01*
X634376Y1917008D02*
X642369Y1925000D01*
X565624Y1917008D02*
X634376D01*
X557631Y1925000D02*
X565624Y1917008D01*
X475000Y1925000D02*
X557631D01*
X1725000D02*
X1800000Y1850000D01*
X325000Y2075000D02*
X475000Y1925000D01*
X1100000Y1200000D02*
X1170276D01*
X1188189Y1217913D01*
X1200000D01*
X1211811D01*
X1223465Y1229567D01*
Y1230551D01*
X1301535Y1308622D01*
Y1320433D01*
X1313189Y1332087D01*
X1325000D01*
X1348465Y1241378D02*
X1389173Y1282087D01*
X1348465Y1229567D02*
Y1241378D01*
X1336811Y1217913D02*
X1348465Y1229567D01*
X1389173Y1282087D02*
X1475000D01*
Y1167913D02*
X1575000D01*
X1578543Y1171457D01*
X750000Y1775000D02*
X850000Y1675000D01*
X1162599D01*
X1325000D02*
X1581653Y1418347D01*
X1162599Y1675000D02*
X1325000D01*
X1162599Y1410630D02*
Y1675000D01*
X1581653Y1418347D02*
X1656850D01*
X1662599Y1412598D01*
Y1410630D02*
Y1412598D01*
X687598Y1535630D02*
Y1762599D01*
X350000Y1325000D02*
Y1326316D01*
X291749Y1384567D02*
X350000Y1326316D01*
X239117Y1384567D02*
X291749D01*
X196535Y1427149D02*
X239117Y1384567D01*
X196535Y1427149D02*
Y1487024D01*
X210924Y1501413D01*
Y1533956D01*
X212599Y1535630D01*
X1550000Y1775000D02*
X1757087D01*
X1826535Y1705551D01*
Y1693740D02*
Y1705551D01*
Y1693740D02*
X1838189Y1682087D01*
X1850000D01*
Y1350000D02*
Y1567913D01*
Y1100000D02*
Y1250000D01*
X1775000Y1025000D02*
X1850000Y1100000D01*
X1775000Y975000D02*
Y1025000D01*
Y925000D02*
Y975000D01*
X2139732Y1525000D02*
X2175000D01*
X2132087Y1517355D02*
Y1529166D01*
X825000Y900000D02*
Y975000D01*
X350000Y1000000D02*
Y1013284D01*
Y953543D02*
Y1000000D01*
X239308Y2075000D02*
X325000D01*
X238796Y2075512D02*
X239308Y2075000D01*
X25000Y2050000D02*
X50512Y2075512D01*
X238796D01*
X21535Y1462024D02*
X25000Y1465489D01*
Y2050000D01*
X21535Y1203465D02*
X200000Y1025000D01*
X21535Y1203465D02*
Y1462024D01*
X338284Y1025000D02*
X350000Y1013284D01*
X200000Y1025000D02*
X338284D01*
X617913Y1425000D02*
X701535Y1341378D01*
X585827Y1425000D02*
X617913D01*
X713189Y1317913D02*
X725000D01*
X701535Y1329567D02*
X713189Y1317913D01*
X701535Y1329567D02*
Y1341378D01*
X692426Y1175000D02*
X825000D01*
X662426Y1145000D02*
X692426Y1175000D01*
X605000Y1145000D02*
X662426D01*
X575000Y1175000D02*
X605000Y1145000D01*
X575000Y1175000D02*
Y1300000D01*
X625000Y1175000D02*
X650000D01*
X725000Y1250000D01*
Y1317913D01*
Y1432087D02*
Y1614370D01*
X1582087Y1167913D02*
X1700000D01*
X1200000Y1332087D02*
Y1489370D01*
X212599Y1774016D02*
Y2012401D01*
Y1535630D02*
Y1774016D01*
D14*
X1800000Y425000D02*
X2300000Y925000D01*
X1800000Y100000D02*
Y425000D01*
X2000000Y1075000D02*
X2049497Y1025503D01*
Y875000D02*
Y1025503D01*
X1025000Y1000000D02*
Y1100000D01*
X550000Y1525000D02*
Y1650000D01*
Y675000D02*
Y1150503D01*
Y625000D02*
Y675000D01*
Y575000D02*
Y625000D01*
X516535Y1491535D02*
X550000Y1525000D01*
X516535Y1183967D02*
Y1491535D01*
Y1183967D02*
X550000Y1150503D01*
X425000Y1475000D02*
Y1525000D01*
Y1425000D02*
Y1475000D01*
Y600000D02*
Y1425000D01*
D15*
X1789645Y1810355D02*
Y1825000D01*
X1714645Y1900000D02*
X1789645Y1825000D01*
X1800000Y1800000D02*
X1875000D01*
X1789645Y1810355D02*
X1800000Y1800000D01*
X652724Y1900000D02*
X1714645D01*
X644732Y1892008D02*
X652724Y1900000D01*
X555268Y1892008D02*
X644732D01*
X547276Y1900000D02*
X555268Y1892008D01*
X380858Y1900000D02*
X547276D01*
X287402Y1806544D02*
X380858Y1900000D01*
X1760355Y1925000D02*
X1871716D01*
X1735355Y1950000D02*
X1760355Y1925000D01*
X1690000Y1950000D02*
X1735355D01*
X1640000Y2000000D02*
X1690000Y1950000D01*
X1750118Y1397913D02*
X1950000Y1198032D01*
X1748150Y1397913D02*
X1750118D01*
X1935000Y1265000D02*
Y1861716D01*
Y1265000D02*
X2002084Y1197916D01*
X1737402Y1408661D02*
X1748150Y1397913D01*
X1737402Y1408661D02*
Y1410630D01*
X1875000Y1800000D02*
Y1800000D01*
X287402Y1535630D02*
Y1806544D01*
X200000Y2025000D02*
X212599Y2012401D01*
X250000Y1457087D02*
Y1614370D01*
X150000Y1225000D02*
X237118Y1312118D01*
Y1330031D01*
X250000Y1342913D01*
X2000000Y2000000D02*
X2075000Y1925000D01*
Y1586253D02*
Y1925000D01*
X2046079Y1557332D02*
X2075000Y1586253D01*
X2034567Y1557332D02*
X2046079D01*
X2017913Y1540678D02*
X2034567Y1557332D01*
X2017913Y1529166D02*
Y1540678D01*
X1955000Y1345000D02*
X1999811Y1300189D01*
X1955000Y1345000D02*
Y1870000D01*
X1999811Y1300189D02*
X2017725D01*
X2002084Y1197916D02*
X2017913D01*
X1871716Y1925000D02*
X1935000Y1861716D01*
X1850000Y1950000D02*
X1875000D01*
X1800000Y2000000D02*
X1850000Y1950000D01*
X1875000D02*
X1955000Y1870000D01*
X2017725Y1300189D02*
X2017913Y1300000D01*
X1909320Y1965680D02*
X1975000Y1900000D01*
X1909320Y1965680D02*
Y1990680D01*
X1900000Y2000000D02*
X1909320Y1990680D01*
X1975000Y1475000D02*
Y1900000D01*
Y1475000D02*
X2001260Y1448740D01*
Y1435403D02*
Y1448740D01*
Y1435403D02*
X2017913Y1418749D01*
X2132087Y1639583D02*
Y1695678D01*
Y1637500D02*
Y1639583D01*
X2175000Y1764629D02*
X2220000Y1809629D01*
X2175000Y1716582D02*
Y1764629D01*
X2159953Y1701535D02*
X2175000Y1716582D01*
X2220000Y1920000D02*
X2300000Y2000000D01*
X2220000Y1809629D02*
Y1920000D01*
X2137945Y1701535D02*
X2159953D01*
X2132087Y1695678D02*
X2137945Y1701535D01*
X2160252Y1778166D02*
X2200000Y1817913D01*
X2148740Y1778166D02*
X2160252D01*
X2132087Y1761512D02*
X2148740Y1778166D01*
X2132087Y1750000D02*
Y1761512D01*
X2200000Y1817913D02*
Y2000000D01*
D17*
X100000Y2025000D02*
D03*
X2400000Y825000D02*
D03*
Y450000D02*
D03*
D18*
X200000Y2025000D02*
D03*
D19*
X2400000Y925000D02*
D03*
Y550000D02*
D03*
D20*
X1600000Y100000D02*
D03*
X1700000D02*
D03*
X1100000D02*
D03*
X1200000D02*
D03*
X1300000D02*
D03*
X1400000D02*
D03*
X1500000D02*
D03*
X2300000Y2000000D02*
D03*
X2400000D02*
D03*
X1800000D02*
D03*
X1900000D02*
D03*
X2000000D02*
D03*
X2100000D02*
D03*
X2200000D02*
D03*
X740000D02*
D03*
X840000D02*
D03*
X940000D02*
D03*
X1040000D02*
D03*
X1140000D02*
D03*
X1240000D02*
D03*
X1340000D02*
D03*
X1440000D02*
D03*
X1540000D02*
D03*
X2500000Y100000D02*
D03*
X2400000D02*
D03*
X2300000D02*
D03*
X2200000D02*
D03*
X2100000D02*
D03*
D21*
X1800000D02*
D03*
X2500000Y2000000D02*
D03*
X1640000D02*
D03*
X2000000Y100000D02*
D03*
D22*
X600000Y2000000D02*
D03*
X550000Y100000D02*
D03*
X2600000Y1400000D02*
D03*
Y300000D02*
D03*
D23*
X975000Y875000D02*
D03*
X1100000Y900000D02*
D03*
Y950000D02*
D03*
Y1000000D02*
D03*
X925000Y875000D02*
D03*
X375000Y850000D02*
D03*
X325000D02*
D03*
X275000D02*
D03*
X150000Y1000000D02*
D03*
Y900000D02*
D03*
Y950000D02*
D03*
X2125000Y1100000D02*
D03*
X2300000Y1092913D02*
D03*
Y925000D02*
D03*
X2000000Y1075000D02*
D03*
X2049497Y875000D02*
D03*
X1025000Y1100000D02*
D03*
Y1175000D02*
D03*
Y1000000D02*
D03*
Y1525000D02*
D03*
Y1475000D02*
D03*
Y1425000D02*
D03*
Y600000D02*
D03*
Y650000D02*
D03*
Y700000D02*
D03*
X550000Y575000D02*
D03*
Y625000D02*
D03*
Y675000D02*
D03*
Y1650000D02*
D03*
X425000Y600000D02*
D03*
Y650000D02*
D03*
Y700000D02*
D03*
Y1425000D02*
D03*
Y1475000D02*
D03*
Y1525000D02*
D03*
X1325000Y1225000D02*
D03*
X575000Y1313284D02*
D03*
X75000Y1375000D02*
D03*
X1675000Y1350000D02*
D03*
X1875000Y1050000D02*
D03*
X1775000Y1150000D02*
D03*
Y1200000D02*
D03*
X800000Y1375000D02*
D03*
X1225000Y1800000D02*
D03*
X1325000D02*
D03*
X2125000Y1425000D02*
D03*
X350000Y1325000D02*
D03*
X1550000Y1775000D02*
D03*
X1850000Y1350000D02*
D03*
Y1250000D02*
D03*
X1775000Y925000D02*
D03*
Y975000D02*
D03*
X825000Y900000D02*
D03*
Y975000D02*
D03*
X2025000Y1750000D02*
D03*
X1800000Y1850000D02*
D03*
X350000Y953543D02*
D03*
Y1000000D02*
D03*
X825000Y1175000D02*
D03*
X625000D02*
D03*
X2132087Y1197916D02*
D03*
X1950000Y1198032D02*
D03*
X1578543Y1171457D02*
D03*
X1100000Y1200000D02*
D03*
X212599Y1774016D02*
D03*
X325000Y1775000D02*
D03*
X1875000Y1800000D02*
D03*
X2017913Y1639583D02*
D03*
X150000Y1225000D02*
D03*
D24*
X2300000Y1207087D02*
D03*
Y1092913D02*
D03*
X1850000Y1567913D02*
D03*
Y1682087D02*
D03*
X725000Y1317913D02*
D03*
Y1432087D02*
D03*
X1700000Y1167913D02*
D03*
Y1282087D02*
D03*
X575000Y1317913D02*
D03*
Y1432087D02*
D03*
X75000Y1317913D02*
D03*
Y1432087D02*
D03*
X250000Y1457087D02*
D03*
Y1342913D02*
D03*
X1475000Y1282087D02*
D03*
Y1167913D02*
D03*
X1325000Y1332087D02*
D03*
Y1217913D02*
D03*
X1200000Y1332087D02*
D03*
Y1217913D02*
D03*
D25*
X1217913Y1800000D02*
D03*
X1332086D02*
D03*
X2132087Y1749999D02*
D03*
X2017913D02*
D03*
Y1418749D02*
D03*
X2132087D02*
D03*
Y1529166D02*
D03*
X2017913D02*
D03*
X2132087Y1197916D02*
D03*
X2017913D02*
D03*
X2132087Y1639583D02*
D03*
X2017913D02*
D03*
Y1300000D02*
D03*
X2132087D02*
D03*
D26*
X1237402Y1410630D02*
D03*
X1162599D02*
D03*
X1200000Y1489370D02*
D03*
X1737402Y1410630D02*
D03*
X1662599D02*
D03*
X1700000Y1489370D02*
D03*
X762402Y1535630D02*
D03*
X687598D02*
D03*
X725000Y1614370D02*
D03*
X287402Y1535630D02*
D03*
X212599D02*
D03*
X250000Y1614370D02*
D03*
%TF.MD5,ae82a10f86548c52f8bbd08abecc06f5*%
M02*
