%TF.GenerationSoftware,Altium Limited,Altium Designer,19.1.8 (144)*%
G04 Layer_Color=2752767*
%FSLAX26Y26*%
%MOIN*%
%TF.FileFunction,Drawing*%
%TF.Part,Single*%
G01*
G75*
%TA.AperFunction,NonConductor*%
%ADD44C,0.005000*%
%ADD56C,0.006667*%
D44*
X80000Y2005000D02*
Y2045000D01*
X120000D01*
Y2005000D01*
X80000D01*
X180000D02*
Y2045000D01*
X220000D01*
Y2005000D01*
X180000D01*
X2380000Y805000D02*
Y845000D01*
X2420000D01*
Y805000D01*
X2380000D01*
Y905000D02*
Y945000D01*
X2420000D01*
Y905000D01*
X2380000D01*
Y430000D02*
Y470000D01*
X2420000D01*
Y430000D01*
X2380000D01*
Y530000D02*
Y570000D01*
X2420000D01*
Y530000D01*
X2380000D01*
X600000Y1980000D02*
X580000Y2020000D01*
X620000D01*
X600000Y1980000D01*
X550000Y80000D02*
X530000Y120000D01*
X570000D01*
X550000Y80000D01*
X2600000Y1380000D02*
X2580000Y1420000D01*
X2620000D01*
X2600000Y1380000D01*
Y280000D02*
X2580000Y320000D01*
X2620000D01*
X2600000Y280000D01*
X975000Y855000D02*
X985000Y865000D01*
X995000D01*
X985000Y875000D01*
X995000Y885000D01*
X985000D01*
X975000Y895000D01*
X965000Y885000D01*
X955000D01*
X965000Y875000D01*
X955000Y865000D01*
X965000D01*
X975000Y855000D01*
X1100000Y880000D02*
X1110000Y890000D01*
X1120000D01*
X1110000Y900000D01*
X1120000Y910000D01*
X1110000D01*
X1100000Y920000D01*
X1090000Y910000D01*
X1080000D01*
X1090000Y900000D01*
X1080000Y890000D01*
X1090000D01*
X1100000Y880000D01*
Y930000D02*
X1110000Y940000D01*
X1120000D01*
X1110000Y950000D01*
X1120000Y960000D01*
X1110000D01*
X1100000Y970000D01*
X1090000Y960000D01*
X1080000D01*
X1090000Y950000D01*
X1080000Y940000D01*
X1090000D01*
X1100000Y930000D01*
Y980000D02*
X1110000Y990000D01*
X1120000D01*
X1110000Y1000000D01*
X1120000Y1010000D01*
X1110000D01*
X1100000Y1020000D01*
X1090000Y1010000D01*
X1080000D01*
X1090000Y1000000D01*
X1080000Y990000D01*
X1090000D01*
X1100000Y980000D01*
X925000Y855000D02*
X935000Y865000D01*
X945000D01*
X935000Y875000D01*
X945000Y885000D01*
X935000D01*
X925000Y895000D01*
X915000Y885000D01*
X905000D01*
X915000Y875000D01*
X905000Y865000D01*
X915000D01*
X925000Y855000D01*
X375000Y830000D02*
X385000Y840000D01*
X395000D01*
X385000Y850000D01*
X395000Y860000D01*
X385000D01*
X375000Y870000D01*
X365000Y860000D01*
X355000D01*
X365000Y850000D01*
X355000Y840000D01*
X365000D01*
X375000Y830000D01*
X325000D02*
X335000Y840000D01*
X345000D01*
X335000Y850000D01*
X345000Y860000D01*
X335000D01*
X325000Y870000D01*
X315000Y860000D01*
X305000D01*
X315000Y850000D01*
X305000Y840000D01*
X315000D01*
X325000Y830000D01*
X275000D02*
X285000Y840000D01*
X295000D01*
X285000Y850000D01*
X295000Y860000D01*
X285000D01*
X275000Y870000D01*
X265000Y860000D01*
X255000D01*
X265000Y850000D01*
X255000Y840000D01*
X265000D01*
X275000Y830000D01*
X150000Y980000D02*
X160000Y990000D01*
X170000D01*
X160000Y1000000D01*
X170000Y1010000D01*
X160000D01*
X150000Y1020000D01*
X140000Y1010000D01*
X130000D01*
X140000Y1000000D01*
X130000Y990000D01*
X140000D01*
X150000Y980000D01*
Y880000D02*
X160000Y890000D01*
X170000D01*
X160000Y900000D01*
X170000Y910000D01*
X160000D01*
X150000Y920000D01*
X140000Y910000D01*
X130000D01*
X140000Y900000D01*
X130000Y890000D01*
X140000D01*
X150000Y880000D01*
Y930000D02*
X160000Y940000D01*
X170000D01*
X160000Y950000D01*
X170000Y960000D01*
X160000D01*
X150000Y970000D01*
X140000Y960000D01*
X130000D01*
X140000Y950000D01*
X130000Y940000D01*
X140000D01*
X150000Y930000D01*
X2125000Y1080000D02*
X2135000Y1090000D01*
X2145000D01*
X2135000Y1100000D01*
X2145000Y1110000D01*
X2135000D01*
X2125000Y1120000D01*
X2115000Y1110000D01*
X2105000D01*
X2115000Y1100000D01*
X2105000Y1090000D01*
X2115000D01*
X2125000Y1080000D01*
X2300000Y1072913D02*
X2310000Y1082913D01*
X2320000D01*
X2310000Y1092913D01*
X2320000Y1102913D01*
X2310000D01*
X2300000Y1112913D01*
X2290000Y1102913D01*
X2280000D01*
X2290000Y1092913D01*
X2280000Y1082913D01*
X2290000D01*
X2300000Y1072913D01*
Y905000D02*
X2310000Y915000D01*
X2320000D01*
X2310000Y925000D01*
X2320000Y935000D01*
X2310000D01*
X2300000Y945000D01*
X2290000Y935000D01*
X2280000D01*
X2290000Y925000D01*
X2280000Y915000D01*
X2290000D01*
X2300000Y905000D01*
X2000000Y1055000D02*
X2010000Y1065000D01*
X2020000D01*
X2010000Y1075000D01*
X2020000Y1085000D01*
X2010000D01*
X2000000Y1095000D01*
X1990000Y1085000D01*
X1980000D01*
X1990000Y1075000D01*
X1980000Y1065000D01*
X1990000D01*
X2000000Y1055000D01*
X2049497Y855000D02*
X2059497Y865000D01*
X2069497D01*
X2059497Y875000D01*
X2069497Y885000D01*
X2059497D01*
X2049497Y895000D01*
X2039497Y885000D01*
X2029497D01*
X2039497Y875000D01*
X2029497Y865000D01*
X2039497D01*
X2049497Y855000D01*
X1025000Y1080000D02*
X1035000Y1090000D01*
X1045000D01*
X1035000Y1100000D01*
X1045000Y1110000D01*
X1035000D01*
X1025000Y1120000D01*
X1015000Y1110000D01*
X1005000D01*
X1015000Y1100000D01*
X1005000Y1090000D01*
X1015000D01*
X1025000Y1080000D01*
Y1155000D02*
X1035000Y1165000D01*
X1045000D01*
X1035000Y1175000D01*
X1045000Y1185000D01*
X1035000D01*
X1025000Y1195000D01*
X1015000Y1185000D01*
X1005000D01*
X1015000Y1175000D01*
X1005000Y1165000D01*
X1015000D01*
X1025000Y1155000D01*
Y980000D02*
X1035000Y990000D01*
X1045000D01*
X1035000Y1000000D01*
X1045000Y1010000D01*
X1035000D01*
X1025000Y1020000D01*
X1015000Y1010000D01*
X1005000D01*
X1015000Y1000000D01*
X1005000Y990000D01*
X1015000D01*
X1025000Y980000D01*
Y1505000D02*
X1035000Y1515000D01*
X1045000D01*
X1035000Y1525000D01*
X1045000Y1535000D01*
X1035000D01*
X1025000Y1545000D01*
X1015000Y1535000D01*
X1005000D01*
X1015000Y1525000D01*
X1005000Y1515000D01*
X1015000D01*
X1025000Y1505000D01*
Y1455000D02*
X1035000Y1465000D01*
X1045000D01*
X1035000Y1475000D01*
X1045000Y1485000D01*
X1035000D01*
X1025000Y1495000D01*
X1015000Y1485000D01*
X1005000D01*
X1015000Y1475000D01*
X1005000Y1465000D01*
X1015000D01*
X1025000Y1455000D01*
Y1405000D02*
X1035000Y1415000D01*
X1045000D01*
X1035000Y1425000D01*
X1045000Y1435000D01*
X1035000D01*
X1025000Y1445000D01*
X1015000Y1435000D01*
X1005000D01*
X1015000Y1425000D01*
X1005000Y1415000D01*
X1015000D01*
X1025000Y1405000D01*
Y580000D02*
X1035000Y590000D01*
X1045000D01*
X1035000Y600000D01*
X1045000Y610000D01*
X1035000D01*
X1025000Y620000D01*
X1015000Y610000D01*
X1005000D01*
X1015000Y600000D01*
X1005000Y590000D01*
X1015000D01*
X1025000Y580000D01*
Y630000D02*
X1035000Y640000D01*
X1045000D01*
X1035000Y650000D01*
X1045000Y660000D01*
X1035000D01*
X1025000Y670000D01*
X1015000Y660000D01*
X1005000D01*
X1015000Y650000D01*
X1005000Y640000D01*
X1015000D01*
X1025000Y630000D01*
Y680000D02*
X1035000Y690000D01*
X1045000D01*
X1035000Y700000D01*
X1045000Y710000D01*
X1035000D01*
X1025000Y720000D01*
X1015000Y710000D01*
X1005000D01*
X1015000Y700000D01*
X1005000Y690000D01*
X1015000D01*
X1025000Y680000D01*
X550000Y555000D02*
X560000Y565000D01*
X570000D01*
X560000Y575000D01*
X570000Y585000D01*
X560000D01*
X550000Y595000D01*
X540000Y585000D01*
X530000D01*
X540000Y575000D01*
X530000Y565000D01*
X540000D01*
X550000Y555000D01*
Y605000D02*
X560000Y615000D01*
X570000D01*
X560000Y625000D01*
X570000Y635000D01*
X560000D01*
X550000Y645000D01*
X540000Y635000D01*
X530000D01*
X540000Y625000D01*
X530000Y615000D01*
X540000D01*
X550000Y605000D01*
Y655000D02*
X560000Y665000D01*
X570000D01*
X560000Y675000D01*
X570000Y685000D01*
X560000D01*
X550000Y695000D01*
X540000Y685000D01*
X530000D01*
X540000Y675000D01*
X530000Y665000D01*
X540000D01*
X550000Y655000D01*
Y1630000D02*
X560000Y1640000D01*
X570000D01*
X560000Y1650000D01*
X570000Y1660000D01*
X560000D01*
X550000Y1670000D01*
X540000Y1660000D01*
X530000D01*
X540000Y1650000D01*
X530000Y1640000D01*
X540000D01*
X550000Y1630000D01*
X425000Y580000D02*
X435000Y590000D01*
X445000D01*
X435000Y600000D01*
X445000Y610000D01*
X435000D01*
X425000Y620000D01*
X415000Y610000D01*
X405000D01*
X415000Y600000D01*
X405000Y590000D01*
X415000D01*
X425000Y580000D01*
Y630000D02*
X435000Y640000D01*
X445000D01*
X435000Y650000D01*
X445000Y660000D01*
X435000D01*
X425000Y670000D01*
X415000Y660000D01*
X405000D01*
X415000Y650000D01*
X405000Y640000D01*
X415000D01*
X425000Y630000D01*
Y680000D02*
X435000Y690000D01*
X445000D01*
X435000Y700000D01*
X445000Y710000D01*
X435000D01*
X425000Y720000D01*
X415000Y710000D01*
X405000D01*
X415000Y700000D01*
X405000Y690000D01*
X415000D01*
X425000Y680000D01*
Y1405000D02*
X435000Y1415000D01*
X445000D01*
X435000Y1425000D01*
X445000Y1435000D01*
X435000D01*
X425000Y1445000D01*
X415000Y1435000D01*
X405000D01*
X415000Y1425000D01*
X405000Y1415000D01*
X415000D01*
X425000Y1405000D01*
Y1455000D02*
X435000Y1465000D01*
X445000D01*
X435000Y1475000D01*
X445000Y1485000D01*
X435000D01*
X425000Y1495000D01*
X415000Y1485000D01*
X405000D01*
X415000Y1475000D01*
X405000Y1465000D01*
X415000D01*
X425000Y1455000D01*
Y1505000D02*
X435000Y1515000D01*
X445000D01*
X435000Y1525000D01*
X445000Y1535000D01*
X435000D01*
X425000Y1545000D01*
X415000Y1535000D01*
X405000D01*
X415000Y1525000D01*
X405000Y1515000D01*
X415000D01*
X425000Y1505000D01*
X1325000Y1205000D02*
X1335000Y1215000D01*
X1345000D01*
X1335000Y1225000D01*
X1345000Y1235000D01*
X1335000D01*
X1325000Y1245000D01*
X1315000Y1235000D01*
X1305000D01*
X1315000Y1225000D01*
X1305000Y1215000D01*
X1315000D01*
X1325000Y1205000D01*
X575000Y1293284D02*
X585000Y1303284D01*
X595000D01*
X585000Y1313284D01*
X595000Y1323284D01*
X585000D01*
X575000Y1333284D01*
X565000Y1323284D01*
X555000D01*
X565000Y1313284D01*
X555000Y1303284D01*
X565000D01*
X575000Y1293284D01*
X75000Y1355000D02*
X85000Y1365000D01*
X95000D01*
X85000Y1375000D01*
X95000Y1385000D01*
X85000D01*
X75000Y1395000D01*
X65000Y1385000D01*
X55000D01*
X65000Y1375000D01*
X55000Y1365000D01*
X65000D01*
X75000Y1355000D01*
X1675000Y1330000D02*
X1685000Y1340000D01*
X1695000D01*
X1685000Y1350000D01*
X1695000Y1360000D01*
X1685000D01*
X1675000Y1370000D01*
X1665000Y1360000D01*
X1655000D01*
X1665000Y1350000D01*
X1655000Y1340000D01*
X1665000D01*
X1675000Y1330000D01*
X1875000Y1030000D02*
X1885000Y1040000D01*
X1895000D01*
X1885000Y1050000D01*
X1895000Y1060000D01*
X1885000D01*
X1875000Y1070000D01*
X1865000Y1060000D01*
X1855000D01*
X1865000Y1050000D01*
X1855000Y1040000D01*
X1865000D01*
X1875000Y1030000D01*
X1775000Y1130000D02*
X1785000Y1140000D01*
X1795000D01*
X1785000Y1150000D01*
X1795000Y1160000D01*
X1785000D01*
X1775000Y1170000D01*
X1765000Y1160000D01*
X1755000D01*
X1765000Y1150000D01*
X1755000Y1140000D01*
X1765000D01*
X1775000Y1130000D01*
Y1180000D02*
X1785000Y1190000D01*
X1795000D01*
X1785000Y1200000D01*
X1795000Y1210000D01*
X1785000D01*
X1775000Y1220000D01*
X1765000Y1210000D01*
X1755000D01*
X1765000Y1200000D01*
X1755000Y1190000D01*
X1765000D01*
X1775000Y1180000D01*
X800000Y1355000D02*
X810000Y1365000D01*
X820000D01*
X810000Y1375000D01*
X820000Y1385000D01*
X810000D01*
X800000Y1395000D01*
X790000Y1385000D01*
X780000D01*
X790000Y1375000D01*
X780000Y1365000D01*
X790000D01*
X800000Y1355000D01*
X1225000Y1780000D02*
X1235000Y1790000D01*
X1245000D01*
X1235000Y1800000D01*
X1245000Y1810000D01*
X1235000D01*
X1225000Y1820000D01*
X1215000Y1810000D01*
X1205000D01*
X1215000Y1800000D01*
X1205000Y1790000D01*
X1215000D01*
X1225000Y1780000D01*
X1325000D02*
X1335000Y1790000D01*
X1345000D01*
X1335000Y1800000D01*
X1345000Y1810000D01*
X1335000D01*
X1325000Y1820000D01*
X1315000Y1810000D01*
X1305000D01*
X1315000Y1800000D01*
X1305000Y1790000D01*
X1315000D01*
X1325000Y1780000D01*
X2125000Y1405000D02*
X2135000Y1415000D01*
X2145000D01*
X2135000Y1425000D01*
X2145000Y1435000D01*
X2135000D01*
X2125000Y1445000D01*
X2115000Y1435000D01*
X2105000D01*
X2115000Y1425000D01*
X2105000Y1415000D01*
X2115000D01*
X2125000Y1405000D01*
X350000Y1305000D02*
X360000Y1315000D01*
X370000D01*
X360000Y1325000D01*
X370000Y1335000D01*
X360000D01*
X350000Y1345000D01*
X340000Y1335000D01*
X330000D01*
X340000Y1325000D01*
X330000Y1315000D01*
X340000D01*
X350000Y1305000D01*
X1550000Y1755000D02*
X1560000Y1765000D01*
X1570000D01*
X1560000Y1775000D01*
X1570000Y1785000D01*
X1560000D01*
X1550000Y1795000D01*
X1540000Y1785000D01*
X1530000D01*
X1540000Y1775000D01*
X1530000Y1765000D01*
X1540000D01*
X1550000Y1755000D01*
X1850000Y1330000D02*
X1860000Y1340000D01*
X1870000D01*
X1860000Y1350000D01*
X1870000Y1360000D01*
X1860000D01*
X1850000Y1370000D01*
X1840000Y1360000D01*
X1830000D01*
X1840000Y1350000D01*
X1830000Y1340000D01*
X1840000D01*
X1850000Y1330000D01*
Y1230000D02*
X1860000Y1240000D01*
X1870000D01*
X1860000Y1250000D01*
X1870000Y1260000D01*
X1860000D01*
X1850000Y1270000D01*
X1840000Y1260000D01*
X1830000D01*
X1840000Y1250000D01*
X1830000Y1240000D01*
X1840000D01*
X1850000Y1230000D01*
X1775000Y905000D02*
X1785000Y915000D01*
X1795000D01*
X1785000Y925000D01*
X1795000Y935000D01*
X1785000D01*
X1775000Y945000D01*
X1765000Y935000D01*
X1755000D01*
X1765000Y925000D01*
X1755000Y915000D01*
X1765000D01*
X1775000Y905000D01*
Y955000D02*
X1785000Y965000D01*
X1795000D01*
X1785000Y975000D01*
X1795000Y985000D01*
X1785000D01*
X1775000Y995000D01*
X1765000Y985000D01*
X1755000D01*
X1765000Y975000D01*
X1755000Y965000D01*
X1765000D01*
X1775000Y955000D01*
X825000Y880000D02*
X835000Y890000D01*
X845000D01*
X835000Y900000D01*
X845000Y910000D01*
X835000D01*
X825000Y920000D01*
X815000Y910000D01*
X805000D01*
X815000Y900000D01*
X805000Y890000D01*
X815000D01*
X825000Y880000D01*
Y955000D02*
X835000Y965000D01*
X845000D01*
X835000Y975000D01*
X845000Y985000D01*
X835000D01*
X825000Y995000D01*
X815000Y985000D01*
X805000D01*
X815000Y975000D01*
X805000Y965000D01*
X815000D01*
X825000Y955000D01*
X2025000Y1730000D02*
X2035000Y1740000D01*
X2045000D01*
X2035000Y1750000D01*
X2045000Y1760000D01*
X2035000D01*
X2025000Y1770000D01*
X2015000Y1760000D01*
X2005000D01*
X2015000Y1750000D01*
X2005000Y1740000D01*
X2015000D01*
X2025000Y1730000D01*
X1800000Y1830000D02*
X1810000Y1840000D01*
X1820000D01*
X1810000Y1850000D01*
X1820000Y1860000D01*
X1810000D01*
X1800000Y1870000D01*
X1790000Y1860000D01*
X1780000D01*
X1790000Y1850000D01*
X1780000Y1840000D01*
X1790000D01*
X1800000Y1830000D01*
X350000Y933543D02*
X360000Y943543D01*
X370000D01*
X360000Y953543D01*
X370000Y963543D01*
X360000D01*
X350000Y973543D01*
X340000Y963543D01*
X330000D01*
X340000Y953543D01*
X330000Y943543D01*
X340000D01*
X350000Y933543D01*
Y980000D02*
X360000Y990000D01*
X370000D01*
X360000Y1000000D01*
X370000Y1010000D01*
X360000D01*
X350000Y1020000D01*
X340000Y1010000D01*
X330000D01*
X340000Y1000000D01*
X330000Y990000D01*
X340000D01*
X350000Y980000D01*
X825000Y1155000D02*
X835000Y1165000D01*
X845000D01*
X835000Y1175000D01*
X845000Y1185000D01*
X835000D01*
X825000Y1195000D01*
X815000Y1185000D01*
X805000D01*
X815000Y1175000D01*
X805000Y1165000D01*
X815000D01*
X825000Y1155000D01*
X625000D02*
X635000Y1165000D01*
X645000D01*
X635000Y1175000D01*
X645000Y1185000D01*
X635000D01*
X625000Y1195000D01*
X615000Y1185000D01*
X605000D01*
X615000Y1175000D01*
X605000Y1165000D01*
X615000D01*
X625000Y1155000D01*
X2132087Y1177916D02*
X2142087Y1187916D01*
X2152087D01*
X2142087Y1197916D01*
X2152087Y1207916D01*
X2142087D01*
X2132087Y1217916D01*
X2122087Y1207916D01*
X2112087D01*
X2122087Y1197916D01*
X2112087Y1187916D01*
X2122087D01*
X2132087Y1177916D01*
X1950000Y1178032D02*
X1960000Y1188032D01*
X1970000D01*
X1960000Y1198032D01*
X1970000Y1208032D01*
X1960000D01*
X1950000Y1218032D01*
X1940000Y1208032D01*
X1930000D01*
X1940000Y1198032D01*
X1930000Y1188032D01*
X1940000D01*
X1950000Y1178032D01*
X1578543Y1151457D02*
X1588543Y1161457D01*
X1598543D01*
X1588543Y1171457D01*
X1598543Y1181457D01*
X1588543D01*
X1578543Y1191457D01*
X1568543Y1181457D01*
X1558543D01*
X1568543Y1171457D01*
X1558543Y1161457D01*
X1568543D01*
X1578543Y1151457D01*
X1100000Y1180000D02*
X1110000Y1190000D01*
X1120000D01*
X1110000Y1200000D01*
X1120000Y1210000D01*
X1110000D01*
X1100000Y1220000D01*
X1090000Y1210000D01*
X1080000D01*
X1090000Y1200000D01*
X1080000Y1190000D01*
X1090000D01*
X1100000Y1180000D01*
X212599Y1754016D02*
X222599Y1764016D01*
X232599D01*
X222599Y1774016D01*
X232599Y1784016D01*
X222599D01*
X212599Y1794016D01*
X202599Y1784016D01*
X192599D01*
X202599Y1774016D01*
X192599Y1764016D01*
X202599D01*
X212599Y1754016D01*
X325000Y1755000D02*
X335000Y1765000D01*
X345000D01*
X335000Y1775000D01*
X345000Y1785000D01*
X335000D01*
X325000Y1795000D01*
X315000Y1785000D01*
X305000D01*
X315000Y1775000D01*
X305000Y1765000D01*
X315000D01*
X325000Y1755000D01*
X1875000Y1780000D02*
X1885000Y1790000D01*
X1895000D01*
X1885000Y1800000D01*
X1895000Y1810000D01*
X1885000D01*
X1875000Y1820000D01*
X1865000Y1810000D01*
X1855000D01*
X1865000Y1800000D01*
X1855000Y1790000D01*
X1865000D01*
X1875000Y1780000D01*
X2017913Y1619583D02*
X2027913Y1629583D01*
X2037913D01*
X2027913Y1639583D01*
X2037913Y1649583D01*
X2027913D01*
X2017913Y1659583D01*
X2007913Y1649583D01*
X1997913D01*
X2007913Y1639583D01*
X1997913Y1629583D01*
X2007913D01*
X2017913Y1619583D01*
X150000Y1205000D02*
X160000Y1215000D01*
X170000D01*
X160000Y1225000D01*
X170000Y1235000D01*
X160000D01*
X150000Y1245000D01*
X140000Y1235000D01*
X130000D01*
X140000Y1225000D01*
X130000Y1215000D01*
X140000D01*
X150000Y1205000D01*
D56*
X1620000Y100000D02*
G03*
X1620000Y100000I-20000J0D01*
G01*
X1720000D02*
G03*
X1720000Y100000I-20000J0D01*
G01*
X1120000D02*
G03*
X1120000Y100000I-20000J0D01*
G01*
X1220000D02*
G03*
X1220000Y100000I-20000J0D01*
G01*
X1320000D02*
G03*
X1320000Y100000I-20000J0D01*
G01*
X1420000D02*
G03*
X1420000Y100000I-20000J0D01*
G01*
X1520000D02*
G03*
X1520000Y100000I-20000J0D01*
G01*
X1820000D02*
G03*
X1820000Y100000I-20000J0D01*
G01*
X2320000Y2000000D02*
G03*
X2320000Y2000000I-20000J0D01*
G01*
X2420000D02*
G03*
X2420000Y2000000I-20000J0D01*
G01*
X1820000D02*
G03*
X1820000Y2000000I-20000J0D01*
G01*
X1920000D02*
G03*
X1920000Y2000000I-20000J0D01*
G01*
X2020000D02*
G03*
X2020000Y2000000I-20000J0D01*
G01*
X2120000D02*
G03*
X2120000Y2000000I-20000J0D01*
G01*
X2220000D02*
G03*
X2220000Y2000000I-20000J0D01*
G01*
X2520000D02*
G03*
X2520000Y2000000I-20000J0D01*
G01*
X760000D02*
G03*
X760000Y2000000I-20000J0D01*
G01*
X860000D02*
G03*
X860000Y2000000I-20000J0D01*
G01*
X960000D02*
G03*
X960000Y2000000I-20000J0D01*
G01*
X1060000D02*
G03*
X1060000Y2000000I-20000J0D01*
G01*
X1160000D02*
G03*
X1160000Y2000000I-20000J0D01*
G01*
X1260000D02*
G03*
X1260000Y2000000I-20000J0D01*
G01*
X1360000D02*
G03*
X1360000Y2000000I-20000J0D01*
G01*
X1460000D02*
G03*
X1460000Y2000000I-20000J0D01*
G01*
X1560000D02*
G03*
X1560000Y2000000I-20000J0D01*
G01*
X1660000D02*
G03*
X1660000Y2000000I-20000J0D01*
G01*
X2520000Y100000D02*
G03*
X2520000Y100000I-20000J0D01*
G01*
X2420000D02*
G03*
X2420000Y100000I-20000J0D01*
G01*
X2320000D02*
G03*
X2320000Y100000I-20000J0D01*
G01*
X2220000D02*
G03*
X2220000Y100000I-20000J0D01*
G01*
X2120000D02*
G03*
X2120000Y100000I-20000J0D01*
G01*
X2020000D02*
G03*
X2020000Y100000I-20000J0D01*
G01*
%TF.MD5,486d662cc8d1f7440e99401d9d765941*%
M02*
